<?xml version="1.0" standalone="no"?>
<!DOCTYPE svg PUBLIC "-//W3C//DTD SVG 20010904//EN"
 "http://www.w3.org/TR/2001/REC-SVG-20010904/DTD/svg10.dtd">
<svg version="1.0" xmlns="http://www.w3.org/2000/svg"
 width="127.000000pt" height="192.000000pt" viewBox="0 0 127.000000 192.000000"
 preserveAspectRatio="xMidYMid meet">

<g transform="translate(0.000000,192.000000) scale(0.100000,-0.100000)"
fill="#000000" stroke="none">
<path d="M30 960 l0 -950 175 0 175 0 -2 58 c-2 31 3 84 9 117 16 79 43 301
43 344 0 28 -3 32 -17 26 -37 -16 -125 -18 -133 -4 -21 33 27 183 115 364 41
83 79 165 85 182 l12 33 25 -36 c23 -35 24 -38 9 -82 -9 -25 -16 -57 -16 -71
0 -26 -11 -64 -41 -146 -19 -49 -19 -50 0 -25 11 13 19 29 18 35 -1 5 3 9 9 8
6 -1 10 7 10 19 -1 11 12 30 30 44 22 18 31 20 31 9 0 -8 -4 -12 -9 -9 -9 6
-10 -21 -2 -53 10 -37 84 -29 84 9 0 31 39 88 60 88 10 0 22 5 25 10 8 13 52
13 60 0 4 -6 11 -8 16 -5 5 4 12 0 15 -9 3 -8 13 -17 21 -20 13 -5 14 -4 3 9
-14 17 0 21 28 6 9 -5 37 -17 60 -27 l44 -19 -6 -79 c-5 -53 -3 -83 5 -92 9
-11 8 -21 -1 -44 -9 -21 -11 -57 -7 -110 3 -55 1 -86 -8 -104 -8 -14 -10 -26
-4 -26 5 0 9 -8 9 -19 0 -13 -7 -18 -27 -17 -53 2 -61 -19 -58 -152 1 -65 8
-128 14 -140 6 -11 11 -32 11 -46 l0 -26 185 0 185 0 0 950 0 950 -620 0 -620
0 0 -950z m754 631 c46 -23 75 -67 90 -138 l7 -32 -53 5 c-124 11 -142 15
-187 40 -26 14 -68 30 -94 37 l-46 12 15 31 c34 70 48 77 140 71 56 -3 98 -12
128 -26z m-414 -85 c0 -2 -9 -6 -20 -9 -11 -3 -18 -1 -14 4 5 9 34 13 34 5z
m35 -52 c12 -2 15 2 10 14 -5 14 -4 15 6 4 11 -10 10 -15 -4 -29 -16 -16 -18
-16 -36 4 -11 11 -17 24 -14 27 4 4 10 1 14 -6 4 -6 15 -13 24 -14z m105 6 c0
-5 -5 -10 -11 -10 -5 0 -7 5 -4 10 3 6 8 10 11 10 2 0 4 -4 4 -10z m15 -50 c3
-6 -1 -7 -9 -4 -18 7 -21 14 -7 14 6 0 13 -4 16 -10z m390 0 c3 -6 -1 -7 -9
-4 -18 7 -21 14 -7 14 6 0 13 -4 16 -10z m2 -30 c33 -26 23 -26 -19 0 -18 11
-27 20 -20 20 8 0 25 -9 39 -20z m-297 -15 l25 -14 -30 -1 c-44 -1 -57 -12
-49 -43 7 -29 14 -33 31 -16 8 8 13 8 17 0 4 -6 0 -11 -8 -11 -9 0 -16 -4 -16
-10 0 -5 7 -10 15 -10 23 0 65 30 65 46 0 15 10 17 34 8 19 -7 20 -33 4 -69
-9 -21 -9 -31 0 -46 19 -30 15 -41 -35 -86 -58 -53 -101 -58 -121 -16 -9 20
-9 24 0 15 17 -17 23 -15 54 13 25 23 25 25 6 25 -11 0 -27 3 -35 6 -8 3 -21
-1 -29 -10 -13 -12 -17 -11 -30 12 -9 15 -19 42 -23 60 -6 28 -4 32 13 32 11
0 22 6 25 14 6 16 -24 56 -42 56 -15 0 -4 41 13 52 19 13 89 8 116 -7z m354
-19 c-3 -8 -12 -12 -20 -9 -17 6 -9 23 11 23 8 0 12 -6 9 -14z m-326 -23 c-10
-2 -28 -2 -40 0 -13 2 -5 4 17 4 22 1 32 -1 23 -4z m-133 -53 c3 -5 1 -10 -4
-10 -6 0 -11 5 -11 10 0 6 2 10 4 10 3 0 8 -4 11 -10z"/>
<path d="M481 704 c0 -11 3 -14 6 -6 3 7 2 16 -1 19 -3 4 -6 -2 -5 -13z"/>
<path d="M682 690 c0 -19 2 -27 5 -17 2 9 2 25 0 35 -3 9 -5 1 -5 -18z"/>
<path d="M824 688 l-19 -23 23 19 c21 18 27 26 19 26 -2 0 -12 -10 -23 -22z"/>
<path d="M706 685 c-9 -26 -7 -32 5 -12 6 10 9 21 6 23 -2 3 -7 -2 -11 -11z"/>
<path d="M410 634 c0 -8 5 -12 10 -9 6 4 8 11 5 16 -9 14 -15 11 -15 -7z"/>
<path d="M651 624 c0 -11 3 -14 6 -6 3 7 2 16 -1 19 -3 4 -6 -2 -5 -13z"/>
<path d="M859 613 c-13 -17 -13 -17 6 -3 11 8 22 16 24 17 2 2 0 3 -6 3 -6 0
-17 -8 -24 -17z"/>
<path d="M581 604 c0 -11 3 -14 6 -6 3 7 2 16 -1 19 -3 4 -6 -2 -5 -13z"/>
<path d="M612 580 c0 -14 2 -19 5 -12 2 6 2 18 0 25 -3 6 -5 1 -5 -13z"/>
<path d="M641 574 c0 -11 3 -14 6 -6 3 7 2 16 -1 19 -3 4 -6 -2 -5 -13z"/>
<path d="M816 563 c-6 -14 -5 -15 5 -6 7 7 10 15 7 18 -3 3 -9 -2 -12 -12z"/>
<path d="M672 540 c0 -14 2 -19 5 -12 2 6 2 18 0 25 -3 6 -5 1 -5 -13z"/>
<path d="M632 495 c0 -16 2 -22 5 -12 2 9 2 23 0 30 -3 6 -5 -1 -5 -18z"/>
<path d="M548 463 c6 -2 18 -2 25 0 6 3 1 5 -13 5 -14 0 -19 -2 -12 -5z"/>
<path d="M700 403 c14 -15 27 -30 30 -33 3 -3 11 -17 17 -32 8 -17 20 -28 30
-27 17 1 17 2 1 6 -35 9 -18 25 20 20 l37 -6 -32 11 c-36 12 -44 28 -15 29 10
0 12 3 5 6 -25 10 -13 25 15 19 25 -6 25 -5 -6 12 -19 10 -55 19 -80 21 l-47
2 25 -28z"/>
<path d="M880 420 c-9 -6 -10 -10 -3 -10 6 0 15 5 18 10 8 12 4 12 -15 0z"/>
<path d="M490 406 c0 -2 7 -7 16 -10 8 -3 12 -2 9 4 -6 10 -25 14 -25 6z"/>
<path d="M828 363 c12 -2 32 -2 45 0 12 2 2 4 -23 4 -25 0 -35 -2 -22 -4z"/>
<path d="M758 293 c7 -3 16 -2 19 1 4 3 -2 6 -13 5 -11 0 -14 -3 -6 -6z"/>
<path d="M748 263 c7 -3 16 -2 19 1 4 3 -2 6 -13 5 -11 0 -14 -3 -6 -6z"/>
<path d="M823 263 c9 -2 23 -2 30 0 6 3 -1 5 -18 5 -16 0 -22 -2 -12 -5z"/>
<path d="M808 233 c6 -2 18 -2 25 0 6 3 1 5 -13 5 -14 0 -19 -2 -12 -5z"/>
<path d="M768 193 c7 -3 16 -2 19 1 4 3 -2 6 -13 5 -11 0 -14 -3 -6 -6z"/>
<path d="M653 135 c-27 -11 -53 -41 -53 -59 0 -16 32 -3 65 27 20 17 46 35 58
39 19 5 17 6 -8 7 -16 0 -44 -6 -62 -14z"/>
<path d="M708 113 c7 -3 16 -2 19 1 4 3 -2 6 -13 5 -11 0 -14 -3 -6 -6z"/>
<path d="M708 83 c6 -2 18 -2 25 0 6 3 1 5 -13 5 -14 0 -19 -2 -12 -5z"/>
<path d="M668 73 c7 -3 16 -2 19 1 4 3 -2 6 -13 5 -11 0 -14 -3 -6 -6z"/>
<path d="M778 63 c7 -3 16 -2 19 1 4 3 -2 6 -13 5 -11 0 -14 -3 -6 -6z"/>
<path d="M663 43 c9 -2 23 -2 30 0 6 3 -1 5 -18 5 -16 0 -22 -2 -12 -5z"/>
<path d="M425 20 c-3 -5 3 -10 15 -10 12 0 18 5 15 10 -3 6 -10 10 -15 10 -5
0 -12 -4 -15 -10z"/>
<path d="M698 13 c7 -3 16 -2 19 1 4 3 -2 6 -13 5 -11 0 -14 -3 -6 -6z"/>
</g>
</svg>
